<svg viewBox="0 0 25 24" fill="none" xmlns="http://www.w3.org/2000/svg">
    <path
        d="M16.0594 2.01001C16.0169 1.96251 14.4856 2.02876 13.1531 3.475C11.8206 4.91999 12.0256 6.57749 12.0556 6.61999C12.0856 6.66248 13.9556 6.72873 15.1494 5.04749C16.3431 3.36625 16.1019 2.05876 16.0594 2.01001ZM20.2019 16.6762C20.1419 16.5562 17.2956 15.1337 17.5606 12.3987C17.8256 9.66247 19.6544 8.91247 19.6831 8.83122C19.7119 8.74997 18.9369 7.84373 18.1156 7.38498C17.5126 7.06155 16.8453 6.87624 16.1619 6.84248C16.0269 6.83873 15.5581 6.72373 14.5944 6.98748C13.9594 7.16123 12.5281 7.72373 12.1344 7.74623C11.7394 7.76873 10.5644 7.09373 9.30066 6.91498C8.49192 6.75873 7.63442 7.07873 7.02067 7.32498C6.40818 7.56998 5.24318 8.26748 4.42819 10.1212C3.61319 11.9737 4.03944 14.9087 4.34444 15.8212C4.64943 16.7324 5.12568 18.2262 5.93568 19.3162C6.65567 20.5462 7.61067 21.3999 8.00942 21.6899C8.40817 21.9799 9.53316 22.1724 10.3132 21.7737C10.9407 21.3887 12.0731 21.1674 12.5206 21.1837C12.9669 21.1999 13.8469 21.3762 14.7481 21.8574C15.4619 22.1037 16.1369 22.0012 16.8131 21.7262C17.4894 21.4499 18.4681 20.4024 19.6106 18.2787C20.0444 17.2912 20.2419 16.7574 20.2019 16.6762Z"
        fill="black" />
</svg>