<svg width="24" height="24" viewBox="0 0 24 24" fill="none" xmlns="http://www.w3.org/2000/svg">
    <path
        d="M21.3589 11.3799H4.17588L10.7461 4.81936C10.8088 4.76101 10.8591 4.69065 10.894 4.61246C10.9289 4.53428 10.9476 4.44988 10.9491 4.3643C10.9507 4.27873 10.9349 4.19372 10.9028 4.11436C10.8707 4.03499 10.8229 3.9629 10.7623 3.90238C10.7017 3.84185 10.6295 3.79414 10.55 3.76209C10.4705 3.73003 10.3854 3.71429 10.2997 3.7158C10.214 3.71731 10.1295 3.73604 10.0512 3.77087C9.97287 3.80571 9.9024 3.85594 9.84396 3.91856L2.18439 11.5669C2.1565 11.5961 2.13089 11.6273 2.10779 11.6604C2.09645 11.6774 2.08935 11.6944 2.07942 11.7114C2.0695 11.7284 2.05815 11.7496 2.04822 11.7709C2.04011 11.7926 2.03347 11.8148 2.02836 11.8374C2.02167 11.8544 2.01645 11.872 2.01276 11.8898C1.99575 11.9721 1.99575 12.0569 2.01276 12.1391C2.01664 12.1574 2.02186 12.1754 2.02836 12.1929C2.03545 12.2142 2.03971 12.2368 2.04822 12.2581C2.05673 12.2793 2.0695 12.2992 2.08084 12.319C2.09219 12.3388 2.09645 12.3516 2.10779 12.3686C2.13105 12.4032 2.15766 12.4354 2.18723 12.4649L9.8468 20.1132C9.9678 20.2258 10.1278 20.2871 10.2932 20.2842C10.4586 20.2813 10.6163 20.2144 10.7333 20.0976C10.8502 19.9808 10.9172 19.8233 10.9201 19.6582C10.9231 19.4931 10.8617 19.3332 10.7489 19.2124L4.17588 12.6547H21.3589C21.5281 12.6547 21.6905 12.5875 21.8102 12.468C21.9299 12.3485 21.9972 12.1863 21.9972 12.0173C21.9972 11.8483 21.9299 11.6862 21.8102 11.5666C21.6905 11.4471 21.5281 11.3799 21.3589 11.3799Z"
        fill="#2A3E31" />
</svg>