<svg xmlns="http://www.w3.org/2000/svg" width="240" height="196" fill="none">
    <g clip-path="url(#a)">
        <path fill="#A58563"
            d="M42.75 78s-2.27 15.34 2.36 17.67C47.77 97 52.72 93.8 54 88.29c-.2 4.75 2.83 8.72 5.71 8.32 1.78-.25 6.23-3.2 7.48-8.71.57 4.1 1.81 8.91 4.71 8.51 1.78-.25 5.84-2.81 7.09-8.31 2.24 4 1.75 9.45 4.63 9.05 1.8-.26 4.56-2.85 5.81-8.46 2.33 4.08 4.61 8.87 7.63 8.46 2.43-.32 8-13.84 9.32-23.7L42.75 78Z" />
        <path fill="#FDEAE6" d="M94.76 72.85H0v2.38h94.76v-2.38Z" />
        <path fill="#F7AE77" d="M69.05 137.83h-.74v4.75h.74v-4.75Z" />
        <path fill="#F7AE77" d="M70.38 141.1h-3v7.12h3v-7.12ZM65.06 144.21h-2.81v3.57h2.81v-3.57Z" />
        <path fill="#F7AE77" d="M65 147.68h-.81v21.78H65v-21.78Z" />
        <path fill="#F7AE77"
            d="M78.8 148.65c0-.75-6.4-1.36-14.28-1.36-7.88 0-14.29.61-14.29 1.36 0 .75 6.4 1.35 14.29 1.35 7.89 0 14.28-.59 14.28-1.35Z" />
        <path fill="#9C8767" d="M93.18 127.59h-19.7V129h19.7v-1.41Z" />
        <path fill="#715B55"
            d="m112.78 59.43-.42-1.11c7.37-2.84 12.23-7 12.14-9.17 0-.7-.65-1.24-1.85-1.59-4.41-1.29-6.79-4.75-7.14-7.42a4.412 4.412 0 0 1 2.07-4.54l.6 1a3.232 3.232 0 0 0-1.51 3.4c.31 2.37 2.57 5.35 6.3 6.44 2.17.63 2.67 1.81 2.7 2.67.16 3.42-6.53 7.89-12.89 10.32ZM145.88 59.57l-.42-1.11c7.37-2.83 12.23-7 12.14-9.16 0-.71-.66-1.24-1.86-1.59-4.41-1.3-6.79-4.75-7.13-7.43a4.419 4.419 0 0 1 2.06-4.54l.61 1a3.23 3.23 0 0 0-1.51 3.37c.31 2.38 2.58 5.36 6.29 6.44 2.17.64 2.67 1.82 2.71 2.68.15 3.45-6.53 7.9-12.89 10.34ZM174.46 60.64l-.46-1.11c7.37-2.84 12.23-7 12.14-9.17 0-.7-.65-1.23-1.86-1.58-4.41-1.3-6.79-4.76-7.13-7.43a4.405 4.405 0 0 1 2.06-4.54l.61 1a3.208 3.208 0 0 0-1.51 3.37c.31 2.37 2.58 5.35 6.29 6.44 2.17.63 2.67 1.81 2.71 2.67.2 3.45-6.49 7.9-12.85 10.35Z" />
        <path fill="#9C8767" d="M99.88 127.83H86.82l-8.71 41.37h21.77v-41.37Z" />
        <path fill="#776852"
            d="M3.54 74.43s3.87 18.06 6.69 17.82c1-.08 1.87-2.33 2.56-7.73 1.22 4.25 3 9.06 4.53 8.93 1-.08 1.88-2.33 2.56-7.73 1.23 4.25 3 9.06 4.53 8.93 1-.08 1.89-2.34 2.57-7.73 1.22 4.25 3 9.06 4.53 8.93 1-.09 1.9-2.38 2.58-7.87 1.29 4.29 3.1 9.23 4.76 9.1C40.17 97 43.21 84 43.93 74.24l-40.39.19Z" />
        <path fill="#694B3D" d="M184 54.93H94.55v113.75h107.37L184 54.93Z" />
        <path fill="#855A4A"
            d="m120.89 84.93-27.38.25-.13 25.09 27.77-.51-.26-24.83ZM190.7 136.79l-40.39.2-.2 19.8 41-.4-.41-19.6ZM136.06 157.18H92.88v11.5h46.5l-3.32-11.5Z" />
        <path fill="#BD705F" d="M141.43 110.26H108v26h36l-2.57-26Z" />
        <path fill="#9E7C52" d="M202 157.58h-19v11.1h20.5l-1.5-11.1Z" />
        <path fill="#694B3D" d="M192 85.32h-31.45v23.16h33.89L192 85.32Z" />
        <path fill="#855A4A" d="M186.16 66.32h-33.29v17.62h35.86l-2.57-17.62Z" />
        <path fill="#735245"
            d="M131.2 66.32h-29.55v17.62h29.55V66.32ZM175.33 109.08h-35.66V136h35.66v-26.92ZM119.77 136.79H92v20h27.77v-20Z" />
        <path fill="#5C3E32"
            d="M136.72 157h1.57v.4h43.15v-.79H183v.79h17.13l-.19-1.19h-8.27v.79h-1.57v-.79h-66.58v.4h-1.58v-.4H94.55v1.19h42.17v-.4ZM121.94 136.39h1.58v.8h25.61v-.4h1.57v.4h39.4v-.4h1.58v.4H197l-.18-1.19h-20.7v.59h-1.19V136h-34.86v.49h-1.19V136H108v.69h-1.19V136H94.55v1.19h27.39v-.8ZM106.77 110.26h13.59v-1.18H94.55v1.18h12.22ZM159 110v-.89h-37.45v1.18h17.33v-.19h1.19v.19h34.86v-1.18h-14.77v.89H159ZM176.12 110.26h16.61l-.19-1.18h-16.42v1.18ZM120.36 84.53h1.19v.4H159v-.79h1.18v.79h28.58l-.18-1.19h-35.3v.89h-1.18v-.89h-20.31V84h-1.18v-.3h-29.35v.5h-1.19v-.5h-5.52v1.19h25.81v-.36ZM100.07 65.72h1.19v1h29.35v-1.19h-11.23v.89h-1.18v-.89H94.55v1.18h5.52v-.99ZM166.66 66.62h-1.18v-1.09h-33.69v1.18h20.29v-.59h1.18v.59h32.62l-.19-1.18h-19l-.03 1.09Z" />
        <path fill="#5C3E32"
            d="M183 156.59h-1.57v12.09H183v-12.09ZM150.7 155.8v-19h-1.57v19h1.57ZM138.29 157h-1.57v11.7h1.57V157ZM191.68 136.79h-1.58V157h1.58v-20.21ZM123.52 136.39h-1.58v20.2h1.58v-20.2ZM176.12 109.08h-1.18v27.51h1.18v-27.51ZM121.55 110.37V84.53h-1.19v25.84h1.19ZM159 110h1.18V84.14H159V110ZM108 110.26h-1.19v26.43H108v-26.43ZM140.07 110.07h-1.19v26.42h1.19v-26.42ZM153.26 66.12h-1.18v18.51h1.18V66.12ZM118.2 66.42h1.18V54.93h-1.18v11.49ZM131.79 65.53h-1.18V84h1.18V65.53ZM165.48 66.62h1.18V54.93h-1.18v11.69ZM101.26 65.72h-1.19v18.52h1.19V65.72Z" />
        <path fill="#694B3D" d="M188.86 52.34h-102v16h102v-16Z" />
        <path fill="#472D24" d="M188.86 67.51h-102v1.85h102v-1.85Z" />
        <path fill="#EE7054" d="M193.45 0H97l15.29 44h81.18l-.02-44Z" />
        <path fill="#BB8E4A" d="m10 76.26-1.29.11 21.65 93.38 1.29-.1L10 76.26Z" />
        <path fill="#A58563" d="M46.84 78.77h-1.3l-.15 91.63h1.3l.15-91.63Z" />
        <path fill="#5F543F" d="M229 167.13H6.05V171H229v-3.87Z" />
        <path fill="#472D24" d="M170 89.57h-25.66L138.57 164h37.23L170 89.57Z" />
        <path fill="#F7AE77" d="M169 91.26h-23.65L140 164h34.32L169 91.26Z" />
        <path fill="#46A9A0" d="M168.07 99.18H146.3l-3.57 55h28.91l-3.57-55Z" />
        <path fill="#96C1BF" d="m167.19 104.77-18.67 4.34-2.94 42.53 25 .94-3.39-47.81Z" opacity=".32" />
        <path fill="#719B99" d="M169.62 130.86h-25v3.06h25v-3.06Z" />
        <path fill="#BAD8D6" d="M144.21 127.29 167.84 100l1.38 21.18-16.15 32.67-10.34.39 1.48-26.95Z" opacity=".32" />
        <path fill="#F7AE77" d="M171.19 130.66H143v2.17h28.17l.02-2.17ZM170.8 134.81h-6.31v1.78h6.31v-1.78Z" />
        <path fill="#472D24" d="M132.76 85.43h-27.08v53.78h27.08V85.43Z" />
        <path fill="#F7AE77" d="M131.55 87.11h-24.66v50.42h24.66V87.11Z" />
        <path fill="#46A9A0" d="M130.37 89h-22.3v46.66h22.3V89Z" />
        <path fill="#96C1BF" d="m129 100.34-18.81.79-.69 33.87 19.24-.2.26-34.46Z" opacity=".3" />
        <path fill="#BAD8D6" d="m109.39 115.31 18.9-21.12 1.05 15.72L117 134.17l-7.89.29.28-19.15Z" opacity=".31" />
        <path fill="#281D1D" d="m183.62 54.2-81.18-1.89L97.27 94l2.66 4.61 86.43-1.18 3.4-7.29-6.14-35.94Z"
            opacity=".5" />
        <path fill="#516E5B" d="m184.59 51.87-80.67.3 7.39 27-1.58 10.09 91-4-.73-11.12-15.41-22.27Z" />
        <path fill="#EE7054"
            d="M3.63 74.05s5 17.62 11.87 16.79c3.13-.38 6.72-5.12 10.37-16.79H3.63ZM37.73 74.05s5 17.62 11.87 16.79c3.12-.38 6.72-5.12 10.37-16.79H37.73ZM71.82 74.05s5.33 17.62 12.46 16.79c3.25-.38 7-5.12 10.67-16.79H71.82Z" />
        <path fill="#FDEAE6"
            d="M54.58 73.27s5 17.63 11.87 16.8c3.13-.39 6.73-5.14 10.38-16.8H54.58ZM20.48 73.27s5 17.63 11.87 16.8c3.12-.38 6.73-5.12 10.37-16.8H20.48Z" />
        <path fill="#7D5A5A" d="m111.31 79.19-1.58 10.09 91-4-.73-11.14-88.69 5.05Z" opacity=".5" />
        <path fill="#CEB99B" d="M90.32 127.83 87 128l-6.51 35.24 7.39-5.3v-20.75L90 136l.32-8.17Z" />
        <path fill="#CCB793" d="M181.44 163.32h-44.72v4.15h44.72v-4.15Z" />
        <path fill="#E1F2F5"
            d="m126 88.58 20.79-.91 4.89-11.06-18-24.55-15.85.06L130.22 78 126 88.58ZM169.24 86.69l23.25-1 .77-10.85-22-22.91-15.89.07 19.17 23.64-5.3 11.05Z"
            opacity=".4" />
        <path fill="#fff"
            d="M118.49 16.64c-.1-.64-.42-.91-.82-.91-1.53 0-1.85 4.33-1.4 7.2.24 1.56.66 2.86 1.77 2.86 1.29 0 2.17-1.12 2.79-2.5h.63c-.65 1.43-1.12 4.75-4.35 4.75-1.52 0-2.7-1.22-3.18-4.35-.61-3.89-.26-9 3.29-9a2.081 2.081 0 0 1 2.3 1.83 3.7 3.7 0 0 1 0 .88.73.73 0 0 0-.48-.16 1.247 1.247 0 0 0-.56.16c.02-.25.02-.5 0-.75l.01-.01Z" />
        <path fill="#fff"
            d="M126.8 18.39c.073.08.162.144.26.19.097.043.204.06.31.05.86 0 1.1-.91 1.72-1.3l.15.56a4.207 4.207 0 0 1-2.24 2.33c.48 5.35-1.1 8-2.93 8s-3-1.19-3.47-4.35c-1-6.54.83-9.36 3.36-9.36 1.76-.03 2.5 1.94 2.84 3.88Zm-1.08 2.1c-.53 0-.85-.56-1-1.2a1.903 1.903 0 0 1 .51-1.86c-.19-.87-.47-1.38-1-1.38-1.72 0-1.61 5.42-1.29 7.55.26 1.59.82 2 1.55 2 1.18.02 1.41-2.53 1.23-5.11Z" />
        <path fill="#fff"
            d="M132.82 12.09c0-.26 0-.48-.08-.72-.09-.61-.47-.9-.84-.9s-1 .4-.94 2.18v2.1h1.32v1.06H131l.12 14.35c0 3.8-1.38 4.52-2.58 4.52-1.2 0-2.32-1.14-2.6-2.87-.38-2.45.91-3.22 2.52-4l-.14-15.17c0-3.8 1.42-4.52 2.62-4.52 1.2 0 2.33 1.15 2.61 2.87.056.361.093.725.11 1.09l-.84.01Zm-5 20.22c.38 0 .72-.5.72-2.07v-1.55a2.437 2.437 0 0 0-1.59 2.74c0 .38.46.88.86.88h.01Z" />
        <path fill="#fff"
            d="M137.76 12.09c0-.26 0-.48-.08-.72-.09-.61-.46-.9-.83-.9-.37 0-1 .4-.94 2.18v2.1h1.34v1.06h-1.36l.13 14.35c0 3.8-1.39 4.52-2.58 4.52a3.08 3.08 0 0 1-2.6-2.87c-.38-2.45.91-3.22 2.52-4l-.14-15.17c0-3.8 1.42-4.52 2.62-4.52 1.2 0 2.32 1.15 2.6 2.87.06.36.1.725.12 1.09l-.8.01Zm-5 20.22c.38 0 .73-.5.72-2.07v-1.55a2.438 2.438 0 0 0-1.58 2.74c.05.38.45.88.86.88Z" />
        <path fill="#fff"
            d="M142.3 26.12c.89 0 2.19-1.54 2.52-3.5h.82c-.64 2.73-1.95 5.38-4.31 5.38-1.75 0-3-1.94-3.35-4.23-.52-3.37-.46-9.3 2.87-9.3 1.5 0 2.47.9 2.76 2.76a4.511 4.511 0 0 1-3.29 5.43c0 .42.08.82.13 1.14.26 1.79 1.14 2.32 1.85 2.32Zm-.64-10.2c-1 0-1.39 3-1.39 5.5 1.68 0 2.54-2.13 2.26-4-.08-.56-.32-1.49-.87-1.49v-.01Z" />
        <path fill="#fff"
            d="M148.78 26.12c.9 0 2.2-1.54 2.53-3.5h.82c-.62 2.73-1.95 5.42-4.31 5.42-1.75 0-3-1.94-3.35-4.23-.52-3.37-.46-9.3 2.86-9.3 1.5 0 2.48.9 2.77 2.76a4.511 4.511 0 0 1-3.29 5.43c0 .42.08.82.12 1.14.27 1.75 1.14 2.28 1.85 2.28Zm-.63-10.2c-1 0-1.4 3-1.39 5.5 1.67 0 2.53-2.13 2.26-4-.09-.56-.32-1.49-.87-1.49v-.01ZM159 14.22v.37c.68 4.38 2.13 5.7 2.61 8.81 0 .19.06.38.07.56.348-.554.655-1.132.92-1.73l.62.91c-.42.58-1 1.51-1.6 2.42a2.677 2.677 0 0 1-2.77 2.44c-2.1 0-3.26-.88-3.66-3.48-.33-2.13.14-3.35.86-3.43a30.58 30.58 0 0 0 .44-6.11l2.51-.76Zm-2.25 10.23a1.37 1.37 0 0 1-.7-.24c.25 1.57.94 2.26 1.91 2.26.62 0 1.34-1.12 1-3.17-.26-1.64-1.29-3.05-1.85-6.37-.09 1.29-.09 3-.28 4.33.47.21.71.69.83 1.49.16 1-.3 1.7-.94 1.7h.03Z" />
        <path fill="#fff"
            d="M170.08 23.78a4.826 4.826 0 0 0 0 .85c.09.59.35 1 1.06 1 .71 0 1.45-1.49 2-2.34h.62c-.65 1.23-2.16 4.76-3.59 4.76-1.43 0-2.4-.9-2.71-2.89a8.845 8.845 0 0 1-.1-1.36v-4.78a5.288 5.288 0 0 0-.05-.7c-.15-.95-.59-1.56-1.09-1.56-.206 0-.409.051-.59.15a1.113 1.113 0 0 0-.45.41l.13 10.68h-2.63l-.15-18 2.62-.52v6.72a3.152 3.152 0 0 1 2.16-1.41c1 0 2.34 1.55 2.62 3.33.035.208.055.419.06.63l.09 5.03Z" />
        <path fill="#fff"
            d="M177.82 18.39a.65.65 0 0 0 .56.24c.86 0 1.1-.91 1.72-1.3l.16.56a4.232 4.232 0 0 1-2.26 2.33c.48 5.35-1.1 8-2.92 8-1.82 0-3-1.19-3.48-4.35-1-6.54.83-9.36 3.36-9.36 1.77-.03 2.52 1.94 2.86 3.88Zm-1.09 2.1c-.53 0-.85-.56-.95-1.2a1.903 1.903 0 0 1 .51-1.86c-.19-.87-.47-1.38-1-1.38-1.71 0-1.6 5.42-1.29 7.55.26 1.59.83 2 1.55 2 1.14.02 1.36-2.53 1.18-5.11Z" />
        <path fill="#fff"
            d="M182 14.75v.5a1.82 1.82 0 0 1 1.21-.47c1.9 0 2.95 1 3.37 3.72.096.616.156 1.237.18 1.86.32 5.7-1 7.65-2.81 7.65a3.001 3.001 0 0 1-1.85-.8l.07 6.51-2.61 1-.19-19.93 2.63-.04Zm2.48 5.93c0-.9-.06-1.798-.18-2.69-.26-1.59-.74-1.91-1.32-1.91a1.268 1.268 0 0 0-.54.17c-.167.097-.31.23-.42.39l.07 8.93a1.8 1.8 0 0 0 .58.37c.217.082.449.117.68.1.92 0 1.18-1.14 1.13-5.36Z" />
        <path fill="#E6F3F3"
            d="M117.47 192.2c5.501 0 9.96-4.459 9.96-9.96 0-5.501-4.459-9.96-9.96-9.96-5.501 0-9.96 4.459-9.96 9.96 0 5.501 4.459 9.96 9.96 9.96Z" />
        <path fill="#BFFFF9" d="M117.82 189.29a7.39 7.39 0 1 0-.001-14.781 7.39 7.39 0 0 0 .001 14.781Z"
            opacity=".67" />
        <path fill="#4B3830"
            d="M117.5 193.71a11.612 11.612 0 0 1-8.047-19.861 11.603 11.603 0 0 1 12.637-2.463 11.605 11.605 0 0 1 7.14 10.714 11.68 11.68 0 0 1-11.73 11.61Zm0-20.52a8.909 8.909 0 0 0-6.179 15.241A8.911 8.911 0 0 0 126.5 182.1a9 9 0 0 0-9-8.91Z" />
        <path fill="#4B3830"
            d="m121.07 183.73-.15-.06a.43.43 0 0 0-.308.058.386.386 0 0 0-.112.112 2.933 2.933 0 0 1-1.94 1.15 3 3 0 0 1-2.22-.53 2.92 2.92 0 0 1-1.2-1.9 3.006 3.006 0 0 1 0-1.15c.094-.361.257-.701.48-1a3 3 0 0 1 2-1.15c.778-.12 1.571.07 2.21.53a.42.42 0 0 0 .57-.09.343.343 0 0 0 .06-.14.327.327 0 0 0 0-.17.547.547 0 0 0 0-.14.384.384 0 0 0-.11-.11 3.862 3.862 0 0 0-4.217-.187 3.763 3.763 0 0 0-1.093.987c-.29.4-.5.851-.62 1.33-.12.477-.14.974-.06 1.46.081.486.258.952.52 1.37a3.61 3.61 0 0 0 1 1.06 3.86 3.86 0 0 0 5.31-.81.37.37 0 0 0 .07-.14.43.43 0 0 0-.06-.31.398.398 0 0 0-.1-.12l-.03-.05Z" />
        <path fill="#4B3830"
            d="M120.28 181.72a1.522 1.522 0 0 0-.23-.54 1.677 1.677 0 0 0-.43-.41h-.32a.283.283 0 0 0-.07.08.315.315 0 0 0 0 .23.276.276 0 0 0 .12.18.838.838 0 0 1 .27.26.8.8 0 0 1 .14.33 1 1 0 0 1-.11.75.998.998 0 0 1-.6.46.78.78 0 0 1-.34 0 .923.923 0 0 1-.33-.12.92.92 0 0 1-.26-.26.987.987 0 0 1-.15-.33 1.083 1.083 0 0 1 .12-.75.345.345 0 0 0 0-.22.307.307 0 0 0-.13-.19.28.28 0 0 0-.1 0h-.11l-.11.05a.247.247 0 0 0-.08.09 1.651 1.651 0 0 0-.19 1.19c.049.192.13.375.24.54.112.166.259.306.43.41.13.088.276.15.43.18.103.009.207.009.31 0 .268-.007.53-.083.76-.22.228-.138.415-.335.54-.57.219-.355.291-.782.2-1.19v.05Z" />
        <path fill="#56B9AC"
            d="M123.81 181.14a.51.51 0 0 0-.1-.21.5.5 0 0 0-.17-.15.54.54 0 0 0-.22-.05.526.526 0 0 0-.21.05c-.1.05-.18.13-.23.23a.547.547 0 0 0 0 .33 6.627 6.627 0 0 1-1 4.38 4.767 4.767 0 0 1-4.57 2.14 5.446 5.446 0 0 1-5.12-4 5.329 5.329 0 0 1 1.85-5.81 5.747 5.747 0 0 1 7-.19.42.42 0 0 0 .34.09.46.46 0 0 0 .31-.19.401.401 0 0 0 .1-.18.496.496 0 0 0 0-.21.48.48 0 0 0-.07-.2.688.688 0 0 0-.14-.15 6.777 6.777 0 0 0-8.1.21 6.339 6.339 0 0 0-2.22 6.91 6.44 6.44 0 0 0 6 4.72h.44a5.652 5.652 0 0 0 5-2.6 7.676 7.676 0 0 0 1.11-5.12Z" />
        <path fill="#E6F3F3"
            d="M205.83 193.63c5.606 0 10.15-4.544 10.15-10.15 0-5.606-4.544-10.15-10.15-10.15-5.606 0-10.15 4.544-10.15 10.15 0 5.606 4.544 10.15 10.15 10.15Z" />
        <path fill="#BFFFF9" d="M205.64 191.48a7.54 7.54 0 1 0 0-15.08 7.54 7.54 0 0 0 0 15.08Z" opacity=".67" />
        <path fill="#4B3830"
            d="M201.33 172.7a11.83 11.83 0 1 1-6.51 15.51 11.897 11.897 0 0 1 6.51-15.51Zm8 19.33a9.093 9.093 0 0 0 5.488-8.445 9.088 9.088 0 0 0-18.007-1.661 9.092 9.092 0 0 0 .519 5.236 9.159 9.159 0 0 0 12 4.87Z" />
        <path fill="#4B3830"
            d="M201.86 183.48a.327.327 0 0 0 .17 0l.15-.06a.413.413 0 0 0 .117-.111.41.41 0 0 0 .063-.149A3.07 3.07 0 0 1 206 181c.382.081.743.241 1.06.47.328.221.605.511.81.85.202.335.341.705.41 1.09a3.07 3.07 0 0 1 0 1.17 3.12 3.12 0 0 1-1.4 1.86 3.078 3.078 0 0 1-2.28.35.507.507 0 0 0-.32.05.44.44 0 0 0-.18.26.29.29 0 0 0 0 .16.437.437 0 0 0 .16.27.526.526 0 0 0 .15.07 3.997 3.997 0 0 0 2.93-.47 3.862 3.862 0 0 0 1.76-2.36c.12-.488.14-.994.06-1.49a3.648 3.648 0 0 0-.52-1.4 3.77 3.77 0 0 0-1-1.09 3.814 3.814 0 0 0-1.36-.61 3.938 3.938 0 0 0-4.69 2.83.454.454 0 0 0 .06.32.303.303 0 0 0 .11.12c.042.03.09.051.14.06l-.04-.03Z" />
        <path fill="#4B3830"
            d="M203.38 185.07a1.57 1.57 0 0 0 1 .64h.11l.1-.05a.328.328 0 0 0 .08-.09.338.338 0 0 0 0-.11.302.302 0 0 0-.007-.116.31.31 0 0 0-.053-.104.329.329 0 0 0-.19-.13.922.922 0 0 1-.35-.13 1.001 1.001 0 0 1-.45-1c.015-.133.056-.262.12-.38.07-.11.158-.208.26-.29a.93.93 0 0 1 .32-.15.692.692 0 0 1 .35 0c.125.016.245.06.35.13a.997.997 0 0 1 .27.26c.152.219.216.486.18.75a.332.332 0 0 0 .06.22.307.307 0 0 0 .19.13H205.93l.09-.09a.602.602 0 0 0 0-.12 1.678 1.678 0 0 0-.29-1.19 1.435 1.435 0 0 0-.43-.42 1.715 1.715 0 0 0-.57-.22 1.291 1.291 0 0 0-.48 0c-.103.019-.203.05-.3.09a1.534 1.534 0 0 0-.92 1.24c-.064.42.032.848.27 1.2l.08-.07Z" />
        <path fill="#56B9AC"
            d="M200.3 187a.517.517 0 0 0 .39.23.432.432 0 0 0 .22 0 .466.466 0 0 0 .18-.13.492.492 0 0 0 .13-.31.594.594 0 0 0-.09-.32 6.77 6.77 0 0 1-.8-4.51 4.858 4.858 0 0 1 3.47-3.79 5.562 5.562 0 0 1 6.38 1.75 5.44 5.44 0 0 1 .52 6.19 5.84 5.84 0 0 1-6.49 2.9.463.463 0 0 0-.5.178.475.475 0 0 0-.08.172.496.496 0 0 0 0 .21.48.48 0 0 0 .07.2.44.44 0 0 0 .14.16.452.452 0 0 0 .19.08 6.894 6.894 0 0 0 7.55-3.35 6.461 6.461 0 0 0-.61-7.38 6.556 6.556 0 0 0-7.51-2.09l-.42.16a5.734 5.734 0 0 0-3.69 4.4 7.702 7.702 0 0 0 .95 5.25Z" />
        <path fill="#FC654C"
            d="M151.93 158.58s-32.94-3.21-50.57 2.78c-17.63 5.99-3.44 11.46-3.44 11.46l1.67.7.1 5.56s.86 2.43 4.76 2.14c1.37-6.54 4.15-10.8 11.31-11.65 7.65-.91 11.17 4.18 11.17 4.18a11.332 11.332 0 0 1 2.65 7.27c-.042.8.012 1.603.16 2.39.69 3.33 2.44 3.77 5.16 3.77l57.1-.38s-1.47-9 5-13.33c0 0 6-4.85 13.58-2.46 7.58 2.39 9.16 10.37 9.16 10.37s.48 5.47 4.34 4.26 7.36-1.74 10.41-6.29S225.34 165.2 221 163c-4.34-2.2-11-5.48-26.36-4.79a21.004 21.004 0 0 0-8.55 4.4s-2.35 2.26-12.84 1.22c-10.49-1.04-16.81-1.53-19.56-3.42-1.61-1.22-1.76-1.83-1.76-1.83Z" />
        <path fill="#FC5A44"
            d="M134.9 187.31c-3 0-4.6-.6-5.28-3.88a9.312 9.312 0 0 1-.16-2.42 11.31 11.31 0 0 0-2.63-7.18c0-.06-3.57-5-11.06-4.14-6.39.76-9.63 4.11-11.2 11.55v.1h-.09c-4 .29-4.88-2.2-4.89-2.22l-.09-5.48-1.6-.66c-.22-.09-5.54-2.17-5.48-5.25 0-2.28 3-4.45 8.93-6.45 17.45-5.93 50.3-2.81 50.63-2.78h.02v.08s.2.62 1.67 1.74c2.5 1.72 8 2.26 17.09 3.15l2.4.24c10.27 1 12.72-1.16 12.75-1.18a21.17 21.17 0 0 1 8.61-4.43c15.53-.71 22.1 2.61 26.44 4.8 3.47 1.75 12.64 8.71 14 13.69a3.432 3.432 0 0 1-.35 2.86c-2.7 4-5.8 4.94-9.07 5.91l-1.41.43a2.87 2.87 0 0 1-2.55-.26c-1.67-1.12-1.94-4-2-4.11-.06-.11-1.67-7.93-9.07-10.26s-13.42 2.38-13.48 2.43c-6.32 4.28-5 13.13-4.94 13.22v.15l-57.19.35Zm-17.36-18a11.804 11.804 0 0 1 9.49 4.34 11.568 11.568 0 0 1 2.68 7.35c-.05.79 0 1.583.15 2.36.65 3.12 2.14 3.67 5 3.67l57-.38c-.15-1.18-.93-9.27 5.07-13.32.05 0 6.15-4.85 13.69-2.47 7.54 2.38 9.23 10.39 9.25 10.47.02.08.27 2.88 1.84 3.94a2.638 2.638 0 0 0 2.34.22l1.41-.43c3.37-1 6.28-1.86 8.93-5.81a3.156 3.156 0 0 0 .31-2.66c-1.28-4.9-10.38-11.79-13.81-13.53-4.32-2.18-10.85-5.48-26.3-4.77a20.996 20.996 0 0 0-8.47 4.36c-.1.09-2.51 2.29-12.94 1.25l-2.4-.24c-9.14-.89-14.66-1.44-17.22-3.2a5.46 5.46 0 0 1-1.73-1.79c-1.79-.17-33.45-3-50.44 2.78-5.77 2-8.71 4.05-8.76 6.21-.06 2.91 5.27 5 5.32 5l1.76.72.09 5.62c.09.24 1 2.28 4.53 2 1.59-7.41 5-10.89 11.4-11.65a14.196 14.196 0 0 1 1.81-.01v-.03Z" />
        <path fill="#352A26"
            d="M164.15 157.55a10 10 0 0 0-.67-2.74c-.49-1.11-1-1.3-1.38-1.26-.38.04-.83.34-1.07 1.53a9.702 9.702 0 0 0-.1 2.69l-3.91 3.9-.16.15.63.33 3.56-3.54c.111.708.309 1.4.59 2.06.46 1 .94 1.23 1.27 1.23h.09c.35 0 .82-.33 1.07-1.49a9.492 9.492 0 0 0 .08-2.86Zm-2-3.33c.38 0 1.07 1.33 1.29 3.4a8.693 8.693 0 0 1-.08 2.65c-.15.68-.37.94-.49.95-.12.01-.4-.26-.66-.83a8.704 8.704 0 0 1-.63-2.57c-.24-2.26.24-3.57.55-3.6h.02Z" />
        <path fill="#BFFFF9"
            d="M99.33 165.57s-3-.69 1.16-2.34 14.28-2.86 23.83-3.3c9.55-.44 23.36.65 23.36.65s2.06.52-6.63.39-24.26.33-30.28 1.73c-6.37 1.01-9.42 2.87-11.44 2.87ZM119.38 169.42s27.74-3 45.17 3c17.43 6 12 7 12 7s-8.49 1.15-26.68 1.05c-14.06-.48-20.14 0-20.14 0a11.996 11.996 0 0 0-10.35-11.05ZM191.59 160.45s10.41-1.39 16.26.69a54.283 54.283 0 0 1 11.49 4.6s3 .13.34-1.9-13.33-5-19.76-4.69a45.12 45.12 0 0 0-8.33 1.3ZM156.41 163.53s15.52 4.69 28.86 2.21c4.77-1.28 5.21-2.26 4.87-2.81a.68.68 0 0 0-.21-.2.588.588 0 0 0-.28-.1.61.61 0 0 0-.3 0 .753.753 0 0 0-.26.15c-.67.57-2.39 1.68-6.16 2.41-5.28 1-13.25 0-17-.44s-9.52-1.22-9.52-1.22Z" />
        <path fill="#4B3830"
            d="M230.63 172.07c-.096.01-.194.01-.29 0a4.996 4.996 0 0 1-1.61-.38c-1.56-.61-6.2-3.13-7.07-6.62a1.395 1.395 0 0 1 0-.61c.037-.207.123-.402.25-.57.118-.172.276-.312.46-.41.178-.1.376-.158.58-.17 1-.07 3.84.12 7.51 3.57 1.87 1.75 2.59 3.16 2.13 4.18-.192.342-.48.62-.828.8a2.008 2.008 0 0 1-1.132.21Zm-8-7.26c.71 2.84 4.66 5.21 6.46 5.91.427.174.88.278 1.34.31.49 0 1.06-.08 1.21-.41.15-.33-.21-1.44-1.89-3-3.38-3.17-5.85-3.36-6.74-3.3a.603.603 0 0 0-.18 0 .495.495 0 0 0-.13.12.468.468 0 0 0-.07.16.485.485 0 0 0 0 .17v.04ZM151.58 183.24a.166.166 0 0 1-.12 0 .286.286 0 0 1-.12-.07.41.41 0 0 1-.07-.11.285.285 0 0 1 0-.13l-.41-19a3.331 3.331 0 0 1 2.84-3.47l.74.45a5.235 5.235 0 0 0-2.16 1 2.702 2.702 0 0 0-.75 2.01l.41 19a.316.316 0 0 1 0 .13.266.266 0 0 1-.07.11l-.11.08h-.18ZM160.25 183.82a.316.316 0 0 1 0-.13.266.266 0 0 1 .07-.11.387.387 0 0 1 .1-.08.316.316 0 0 1 .13 0c2-.08 12.77-.51 19.46-.57 2.68 0 4.6-.65 5.68-1.88a3.633 3.633 0 0 0 .93-2.55l-.35-14.14a.348.348 0 0 1 .1-.24.302.302 0 0 1 .23-.11h.13c.043.017.08.045.11.08.035.026.062.06.08.1a.355.355 0 0 1 0 .13l.34 14.11a4.251 4.251 0 0 1-1.09 3c-1.21 1.38-3.29 2.1-6.18 2.12-6.68 0-17.42.48-19.44.57a.342.342 0 0 1-.24-.09.317.317 0 0 1-.11-.24l.05.03Z" />
        <path fill="#352A26"
            d="M183 168.37h-5.1a.684.684 0 0 0-.481.199.684.684 0 0 0 0 .962.684.684 0 0 0 .481.199h5.1c.18 0 .353-.072.481-.199a.684.684 0 0 0 0-.962.684.684 0 0 0-.481-.199Z" />
        <path fill="#4B3830"
            d="M96.29 174c2.14-.293 4.32-.045 6.34.72a.292.292 0 0 1 .17.14.277.277 0 0 1 .022.11.277.277 0 0 1-.022.11.294.294 0 0 1-.13.16.243.243 0 0 1-.2 0 15.433 15.433 0 0 0-2.86-.42 9.767 9.767 0 0 0-2.75.19.246.246 0 0 1-.1.022.26.26 0 0 1-.188-.086.256.256 0 0 1-.052-.096l-.22-.85h-.01ZM231.29 177.63c.15-1 1-2.57 4.75-3a4.14 4.14 0 0 1 2.56.46c1.64.93 1.1 2.23.51 3.05a2.81 2.81 0 0 1-1.51 1 8.81 8.81 0 0 1-5.71-.39.94.94 0 0 1-.48-.46 1.066 1.066 0 0 1-.12-.66Z" />
        <path fill="#3D2C26"
            d="m169.53 163.68-3.88-.14c-13.17-.64-14.12-4.74-14.18-5.21v-.05c-.05-1.52 7.08-6.81 11.33-9.83.28-.24 1.9-1.58 3-1.08.55.25.84.83.86 1.74A51.79 51.79 0 0 0 169.3 163l.23.68Zm-17.06-5.44c.16.46 1.68 3.74 13.23 4.3l2.42.09a50.91 50.91 0 0 1-2.44-13.51c0-.45-.11-.76-.26-.83-.39-.18-1.42.43-2 .94-5.18 3.68-10.61 7.99-10.95 9.01Z" />
        <path fill="#4B3830"
            d="M155.32 158.61h-.12v-.05a.273.273 0 0 1 0-.07.152.152 0 0 1 0-.06v-.06c.25-.27 6.18-6.55 7.72-7.19a.127.127 0 0 1 .12 0c.044.016.08.048.1.09a.193.193 0 0 1 0 .13.177.177 0 0 1-.09.1c-1.47.61-7.53 7-7.59 7.1h-.06l-.08.01Z" />
        <path fill="#BFFFF9"
            d="M95.62 164.45s-2.67.56-3.25 1.82a3.28 3.28 0 0 0 .45 3.78c1.06 1.22 2 1.81 2.52 1.55s.93-.53 1-1.11c.07-.58 0-1.81.08-2.21.09-1.1.056-2.207-.1-3.3a3.117 3.117 0 0 0-.7-.53Z" />
        <path fill="#4B3830"
            d="M95.07 171.94a2.548 2.548 0 0 1-1.8-1.09l-.18-.2a7.138 7.138 0 0 1-1.1-1.43 3.28 3.28 0 0 1-.26-1.93 3.371 3.371 0 0 1 .86-1.75 5.769 5.769 0 0 1 2.5-1.46c.181-.04.369-.04.55 0 .177.043.344.122.49.23.151.119.272.274.35.45.083.172.127.359.13.55v4.57c.01.51-.14 1.01-.43 1.43a1.381 1.381 0 0 1-.45.45 1.279 1.279 0 0 1-.6.19l-.06-.01Zm.32-7.22h-.12a5.071 5.071 0 0 0-2.18 1.28c-.36.382-.6.862-.69 1.38a2.72 2.72 0 0 0 .21 1.54c.284.457.62.88 1 1.26l.19.21c.65.74 1.08.88 1.32.86a.718.718 0 0 0 .31-.11.793.793 0 0 0 .23-.25 1.78 1.78 0 0 0 .3-1v-4.59a.581.581 0 0 0-.22-.46.54.54 0 0 0-.34-.12h-.01Z" />
    </g>
    <defs>
        <clipPath id="a">
            <path fill="#fff" d="M0 0h239.69v195.48H0z" />
        </clipPath>
    </defs>
</svg>