<svg width="20" height="20" viewBox="0 0 20 20" fill="none" xmlns="http://www.w3.org/2000/svg">
    <g clip-path="url(#clip0_467_135)">
        <path
            d="M19.9732 4.77567L19.2399 1.51122C19.1678 1.18115 18.9836 0.885734 18.7183 0.674477C18.453 0.463219 18.1227 0.348962 17.7826 0.350853H2.07675C1.72611 0.349797 1.38631 0.471554 1.11709 0.694719C0.847878 0.917883 0.666479 1.22817 0.604787 1.57103L0.0173371 4.81687C-0.0113079 4.97016 -0.00566551 5.12782 0.0338597 5.2787C0.073385 5.42958 0.145827 5.56998 0.246058 5.68996C0.346288 5.80994 0.471853 5.90655 0.613857 5.97297C0.755861 6.03938 0.910829 6.07396 1.06779 6.07427H1.35013L3.20883 18.494C3.25822 18.8148 3.42121 19.1074 3.66847 19.3194C3.91574 19.5314 4.23105 19.6488 4.55768 19.6504H15.3378C15.6658 19.6489 15.9824 19.5308 16.2304 19.3174C16.4783 19.1041 16.6411 18.8097 16.6894 18.4874L18.4798 6.07427H18.9241C19.0851 6.07483 19.2442 6.03931 19.3895 5.97034C19.5348 5.90137 19.6625 5.80073 19.7632 5.67592C19.8639 5.55111 19.935 5.40534 19.9711 5.24948C20.0072 5.09361 20.0075 4.93165 19.9718 4.77567H19.9732ZM16.9918 6.07427L15.2522 18.1883H4.65269L2.84351 6.07427H16.9918ZM18.4249 4.61218H1.54952L2.05936 1.81294H17.7947L18.4249 4.61218Z"
            fill="#2A3E31" />
        <path
            d="M8.51465 12.0795C8.51426 12.2836 8.55692 12.4856 8.63989 12.6724C8.72286 12.8592 8.8443 13.0267 8.99639 13.1641L9.31487 12.7985C9.48493 12.6004 9.5949 12.3584 9.63201 12.1007L9.64941 11.9678C9.70111 11.6101 9.89362 11.2874 10.1847 11.0706L10.6303 10.741C10.433 10.6476 10.2172 10.599 9.99866 10.5988C9.80332 10.5991 9.60995 10.6377 9.42963 10.7123C9.2493 10.7869 9.08555 10.8961 8.94773 11.0336C8.80991 11.1711 8.70072 11.3343 8.62641 11.5137C8.5521 11.6932 8.51413 11.8854 8.51465 12.0795Z"
            fill="#2A3E31" />
        <path
            d="M7.66224 12.0794C7.66295 11.464 7.90929 10.874 8.34726 10.4387C8.78523 10.0034 9.37909 9.75842 9.99865 9.75736C10.395 9.75697 10.7848 9.85766 11.1307 10.0498L11.7289 9.17784C11.3673 8.9223 10.9578 8.7415 10.5245 8.64617C10.0951 8.55166 9.65097 8.54398 9.21851 8.62358C8.78478 8.70319 8.37131 8.86765 8.00213 9.1074C7.63232 9.34907 7.31403 9.66071 7.06543 10.0245C6.5591 10.7622 6.36406 11.6677 6.52217 12.5466C6.68028 13.4256 7.17894 14.2079 7.91114 14.7258L8.50661 13.8592C8.24315 13.6421 8.03094 13.3702 7.88503 13.0626C7.73911 12.7551 7.66306 12.4194 7.66224 12.0794Z"
            fill="#2A3E31" />
        <path
            d="M10.2168 11.698C10.1207 11.8654 10.0614 12.0511 10.0428 12.2429C10.0149 12.5281 9.89743 12.7974 9.70693 13.0125L9.35901 13.4113C9.68034 13.5642 10.0464 13.5971 10.3901 13.5039C10.7339 13.4107 11.0324 13.1977 11.2309 12.9038C11.4295 12.6099 11.5148 12.2548 11.4714 11.9035C11.4279 11.5522 11.2585 11.2282 10.9942 10.9908L10.5928 11.2766C10.4392 11.3895 10.3112 11.533 10.2168 11.698Z"
            fill="#2A3E31" />
        <path
            d="M13.4725 11.5957C13.3171 10.7173 12.8183 9.93557 12.0848 9.42114L11.4894 10.2878C11.8601 10.5921 12.1271 11.0027 12.254 11.4635C12.3809 11.9243 12.3615 12.4127 12.1984 12.8621C12.0352 13.3115 11.7364 13.6999 11.3427 13.9743C10.949 14.2486 10.4796 14.3955 9.99866 14.3949C9.60329 14.3957 9.21435 14.2955 8.86926 14.1038L8.26978 14.9758C8.63062 15.2283 9.03859 15.4067 9.46978 15.5006C9.90096 15.5945 10.3467 15.6019 10.7808 15.5224C11.2149 15.4429 11.6287 15.2782 11.9978 15.0378C12.367 14.7974 12.6841 14.4862 12.9306 14.1224C13.4372 13.3831 13.6318 12.4759 13.4725 11.5957Z"
            fill="#2A3E31" />
    </g>
    <defs>
        <clipPath id="clip0_467_135">
            <rect width="20" height="19.2982" fill="white" transform="translate(0 0.35083)" />
        </clipPath>
    </defs>
</svg>