<svg width="20" height="18" viewBox="0 0 20 18" fill="none" xmlns="http://www.w3.org/2000/svg">
    <g clip-path="url(#clip0_467_146)">
        <path
            d="M18.4615 0.153809H1.53843C1.13041 0.153809 0.739099 0.315899 0.450582 0.604416C0.162064 0.892934 -3.0023e-05 1.28424 -3.0023e-05 1.69227V17.0769C-0.000178874 17.2082 0.0332759 17.3373 0.0971411 17.452C0.161006 17.5667 0.253161 17.6631 0.364835 17.7321C0.476509 17.8011 0.603983 17.8404 0.735131 17.8462C0.866278 17.852 0.99673 17.8242 1.11407 17.7653L3.84612 16.3936L6.57946 17.7602C6.68633 17.8137 6.80419 17.8415 6.92369 17.8415C7.04319 17.8415 7.16105 17.8137 7.26792 17.7602L9.99997 16.3936L12.7333 17.7602C12.8402 17.8137 12.958 17.8415 13.0775 17.8415C13.197 17.8415 13.3149 17.8137 13.4218 17.7602L16.1538 16.3936L18.8872 17.7602C19.0044 17.8188 19.1348 17.8464 19.2657 17.8404C19.3967 17.8345 19.524 17.7951 19.6355 17.7262C19.7469 17.6572 19.8389 17.5609 19.9027 17.4463C19.9665 17.3318 20 17.2029 20 17.0718V1.68714C19.9986 1.28001 19.8359 0.89001 19.5476 0.602601C19.2592 0.315192 18.8686 0.153806 18.4615 0.153809ZM18.4615 15.832L16.4987 14.8551C16.3918 14.8016 16.274 14.7738 16.1545 14.7738C16.035 14.7738 15.9171 14.8016 15.8102 14.8551L13.0769 16.2205L10.3448 14.8551C10.2378 14.8013 10.1197 14.7732 9.99997 14.773C9.88056 14.7728 9.7628 14.8009 9.65638 14.8551L6.92305 16.2205L4.191 14.8551C4.08413 14.8016 3.96627 14.7738 3.84677 14.7738C3.72726 14.7738 3.6094 14.8016 3.50254 14.8551L1.53843 15.8359V1.69227H18.4615V15.832Z"
            fill="#2A3E31" />
        <path
            d="M11.5385 7.84608H16.1538C16.3579 7.84608 16.5535 7.76504 16.6978 7.62078C16.842 7.47652 16.9231 7.28086 16.9231 7.07685C16.9231 6.87284 16.842 6.67718 16.6978 6.53292C16.5535 6.38866 16.3579 6.30762 16.1538 6.30762H11.5385C11.3344 6.30762 11.1388 6.38866 10.9945 6.53292C10.8503 6.67718 10.7692 6.87284 10.7692 7.07685C10.7692 7.28086 10.8503 7.47652 10.9945 7.62078C11.1388 7.76504 11.3344 7.84608 11.5385 7.84608Z"
            fill="#2A3E31" />
        <path
            d="M11.5385 10.923H16.1538C16.3579 10.923 16.5535 10.8419 16.6978 10.6977C16.842 10.5534 16.9231 10.3578 16.9231 10.1538C16.9231 9.94974 16.842 9.75409 16.6978 9.60983C16.5535 9.46557 16.3579 9.38452 16.1538 9.38452H11.5385C11.3344 9.38452 11.1388 9.46557 10.9945 9.60983C10.8503 9.75409 10.7692 9.94974 10.7692 10.1538C10.7692 10.3578 10.8503 10.5534 10.9945 10.6977C11.1388 10.8419 11.3344 10.923 11.5385 10.923Z"
            fill="#2A3E31" />
        <path
            d="M3.84616 12.3332H8.46155C8.63156 12.3332 8.79461 12.2657 8.91483 12.1455C9.03504 12.0253 9.10257 11.8622 9.10257 11.6922V5.53836C9.10257 5.36835 9.03504 5.20531 8.91483 5.08509C8.79461 4.96488 8.63156 4.89734 8.46155 4.89734H3.84616C3.67615 4.89734 3.51311 4.96488 3.39289 5.08509C3.27268 5.20531 3.20514 5.36835 3.20514 5.53836V11.6922C3.20514 11.8622 3.27268 12.0253 3.39289 12.1455C3.51311 12.2657 3.67615 12.3332 3.84616 12.3332ZM4.48719 6.17939H7.82052V11.0512H4.48719V6.17939Z"
            fill="#2A3E31" />
    </g>
    <defs>
        <clipPath id="clip0_467_146">
            <rect width="20" height="17.6923" fill="white" transform="translate(0 0.153809)" />
        </clipPath>
    </defs>
</svg>