<svg width="24" height="24" viewBox="0 0 24 24" fill="none" xmlns="http://www.w3.org/2000/svg">
    <path
        d="M12 3C10.22 3 8.47991 3.52784 6.99987 4.51677C5.51983 5.50571 4.36628 6.91131 3.68509 8.55585C3.0039 10.2004 2.82567 12.01 3.17294 13.7558C3.5202 15.5016 4.37737 17.1053 5.63604 18.364C6.89471 19.6226 8.49836 20.4798 10.2442 20.8271C11.99 21.1743 13.7996 20.9961 15.4442 20.3149C17.0887 19.6337 18.4943 18.4802 19.4832 17.0001C20.4722 15.5201 21 13.78 21 12C20.9954 9.61446 20.0457 7.32793 18.3589 5.64109C16.6721 3.95425 14.3855 3.00457 12 3ZM11.8269 7.15385C12.0323 7.15385 12.2331 7.21475 12.4039 7.32886C12.5746 7.44297 12.7077 7.60515 12.7863 7.7949C12.8649 7.98466 12.8855 8.19346 12.8454 8.3949C12.8054 8.59634 12.7065 8.78138 12.5612 8.92661C12.416 9.07184 12.231 9.17074 12.0295 9.21081C11.8281 9.25088 11.6193 9.23032 11.4295 9.15172C11.2398 9.07312 11.0776 8.94002 10.9635 8.76924C10.8494 8.59847 10.7885 8.39769 10.7885 8.19231C10.7885 7.91689 10.8979 7.65275 11.0926 7.458C11.2874 7.26325 11.5515 7.15385 11.8269 7.15385ZM12.6923 16.8462H12C11.8164 16.8462 11.6403 16.7732 11.5105 16.6434C11.3806 16.5135 11.3077 16.3375 11.3077 16.1538V12C11.1241 12 10.948 11.9271 10.8182 11.7972C10.6883 11.6674 10.6154 11.4913 10.6154 11.3077C10.6154 11.1241 10.6883 10.948 10.8182 10.8182C10.948 10.6883 11.1241 10.6154 11.3077 10.6154H12C12.1836 10.6154 12.3597 10.6883 12.4895 10.8182C12.6194 10.948 12.6923 11.1241 12.6923 11.3077V15.4615C12.8759 15.4615 13.052 15.5345 13.1818 15.6643C13.3117 15.7941 13.3846 15.9702 13.3846 16.1538C13.3846 16.3375 13.3117 16.5135 13.1818 16.6434C13.052 16.7732 12.8759 16.8462 12.6923 16.8462Z"
        fill="#F0F3E8" />
</svg>