<svg width="24" height="24" viewBox="0 0 24 24" fill="none" xmlns="http://www.w3.org/2000/svg">
    <path
        d="M21.8053 20.7015L17.6476 16.545C19.1162 14.7963 19.8529 12.5481 19.7043 10.2693C19.5556 7.99055 18.533 5.85713 16.8496 4.314C15.1663 2.77087 12.9522 1.93717 10.6691 1.98675C8.38604 2.03634 6.21025 2.96539 4.59549 4.58015C2.98073 6.19491 2.05168 8.37071 2.00209 10.6538C1.95251 12.9369 2.78622 15.1509 4.32935 16.8343C5.87248 18.5176 8.00589 19.5403 10.2847 19.6889C12.5634 19.8376 14.8116 19.1008 16.5604 17.6322L20.7168 21.7899C20.7883 21.8614 20.8731 21.9181 20.9665 21.9568C21.0599 21.9954 21.1599 22.0153 21.261 22.0153C21.3621 22.0153 21.4622 21.9954 21.5556 21.9568C21.6489 21.9181 21.7338 21.8614 21.8053 21.7899C21.8767 21.7184 21.9334 21.6336 21.9721 21.5402C22.0108 21.4468 22.0307 21.3468 22.0307 21.2457C22.0307 21.1446 22.0108 21.0445 21.9721 20.9511C21.9334 20.8578 21.8767 20.7729 21.8053 20.7015ZM3.57192 10.8604C3.57192 9.4151 4.00052 8.00223 4.8035 6.80049C5.60647 5.59875 6.74778 4.6621 8.08309 4.109C9.41839 3.5559 10.8877 3.41118 12.3053 3.69315C13.7228 3.97512 15.0249 4.67111 16.0469 5.69311C17.0689 6.71511 17.7649 8.01721 18.0469 9.43476C18.3289 10.8523 18.1841 12.3217 17.631 13.657C17.0779 14.9923 16.1413 16.1336 14.9395 16.9366C13.7378 17.7395 12.3249 18.1681 10.8796 18.1681C8.94212 18.1661 7.08456 17.3955 5.71455 16.0255C4.34453 14.6555 3.57396 12.7979 3.57192 10.8604Z"
        fill="#2A3E31" />
</svg>