<svg width="20" height="18" viewBox="0 0 20 18" fill="none" xmlns="http://www.w3.org/2000/svg">
    <path
        d="M19.9995 5.98125C20.0001 5.97001 20.0001 5.95874 19.9995 5.9475C19.9995 5.93125 19.9995 5.91375 19.9995 5.8975C20.0002 5.88793 20.0002 5.87832 19.9995 5.86875C19.9995 5.84875 19.9918 5.82875 19.9866 5.81V5.795L18.5881 1.08125C18.4952 0.769854 18.3012 0.496183 18.0352 0.301249C17.7691 0.106316 17.4455 0.000619346 17.1126 0H2.87073C2.53687 0.00108975 2.21243 0.10787 1.94629 0.304247C1.68016 0.500624 1.48675 0.775957 1.39522 1.08875L0.0133717 5.795V5.81C0.0133717 5.82875 0.00439027 5.84875 0.00054112 5.86875C-0.000180373 5.87832 -0.000180373 5.88793 0.00054112 5.8975C0.00054112 5.91375 0.00054112 5.93125 0.00054112 5.9475C-9.82659e-05 5.95874 -9.82659e-05 5.97001 0.00054112 5.98125C0.00054112 5.9875 0.00054112 5.99375 0.00054112 6V7.5C0.00054112 8.08217 0.139669 8.65634 0.406907 9.17705C0.674145 9.69776 1.06215 10.1507 1.5402 10.5V16.5C1.5402 16.8978 1.70242 17.2794 1.99116 17.5607C2.2799 17.842 2.67152 18 3.07986 18H16.9201C17.3285 18 17.7201 17.842 18.0088 17.5607C18.2976 17.2794 18.4598 16.8978 18.4598 16.5V10.5C18.9378 10.1507 19.3259 9.69776 19.5931 9.17705C19.8603 8.65634 19.9995 8.08217 19.9995 7.5V6C19.9995 6 19.9995 5.9875 19.9995 5.98125ZM2.86816 1.50625C2.86933 1.50559 2.87066 1.50525 2.87201 1.50525C2.87336 1.50525 2.87469 1.50559 2.87586 1.50625H17.1177L18.2147 5.25625H1.78013L2.86816 1.50625ZM7.68217 6.75H12.3012V7.5C12.3012 8.09674 12.0578 8.66903 11.6247 9.09099C11.1916 9.51295 10.6042 9.75 9.99166 9.75C9.37914 9.75 8.79172 9.51295 8.3586 9.09099C7.92549 8.66903 7.68217 8.09674 7.68217 7.5V6.75ZM6.14251 6.75V7.5C6.14229 7.88759 6.03931 8.26856 5.84353 8.60597C5.64776 8.94339 5.36584 9.22581 5.02509 9.42588C4.68435 9.62594 4.29633 9.73685 3.89865 9.74787C3.50097 9.75888 3.10712 9.66963 2.75525 9.48875C2.70879 9.45412 2.65842 9.42476 2.60513 9.40125C2.27468 9.19915 2.00216 8.91879 1.81302 8.58632C1.62388 8.25385 1.52429 7.88012 1.52352 7.5V6.75H6.14251ZM16.9201 16.5H3.06318V11.175C3.31662 11.2248 3.57449 11.2499 3.83301 11.25C4.43058 11.25 5.01993 11.1145 5.55441 10.8541C6.08888 10.5937 6.5538 10.2157 6.91234 9.75C7.27087 10.2157 7.73579 10.5937 8.27027 10.8541C8.80474 11.1145 9.3941 11.25 9.99166 11.25C10.5892 11.25 11.1786 11.1145 11.7131 10.8541C12.2475 10.5937 12.7124 10.2157 13.071 9.75C13.4295 10.2157 13.8944 10.5937 14.4289 10.8541C14.9634 11.1145 15.5527 11.25 16.1503 11.25C16.4088 11.2499 16.6667 11.2248 16.9201 11.175V16.5ZM17.3782 9.4025C17.3247 9.42513 17.2743 9.4541 17.2281 9.48875C16.8762 9.66963 16.4823 9.75888 16.0847 9.74787C15.687 9.73685 15.299 9.62594 14.9582 9.42588C14.6175 9.22581 14.3356 8.94339 14.1398 8.60597C13.944 8.26856 13.841 7.88759 13.8408 7.5V6.75H18.4598V7.5C18.4593 7.88033 18.3598 8.25432 18.1706 8.58702C17.9815 8.91973 17.7088 9.20029 17.3782 9.4025Z"
        fill="#2A3E31" />
</svg>